<svg width="277" height="286" xmlns="http://www.w3.org/2000/svg">
 <!-- Created with SVG Editor - http://github.com/mzalive/SVG Editor/ -->
 <g>
  <title>Layer 1</title>
  <path id="svg_1" d="m150.957321,24.95233c-69.0355,0 -124.999992,55.964579 -124.999992,124.999987c0,69.036942 55.964493,125.000015 124.999992,125.000015c69.036987,0 125.000015,-55.963058 125.000015,-125.000015c0,-69.0354 -55.963028,-124.999987 -125.000015,-124.999987zm-10.690659,56.195887l20.813675,0l0,22.139084l-20.813675,0l0,-22.139084zm34.445557,134.358513l-22.893692,0c-8.894318,0 -12.687027,-3.784409 -12.687027,-12.867462l0,-59.041946c0,-2.837967 -1.512466,-4.163391 -4.161774,-4.163391l-7.568817,0l0,-20.442917l22.895294,0c8.900925,0 12.67717,3.973053 12.67717,12.865799l0,59.232193c0,2.657593 1.512482,4.163467 4.161774,4.163467l7.568909,0l0,20.254242l0.008163,0z" opacity="0.5" fill-opacity="null" stroke-opacity="null" stroke-width="0" stroke="#000" fill="#BBBBBB"/>
  <path id="svg_2" d="m150.957321,24.95233c-69.0355,0 -124.999992,55.964579 -124.999992,124.999987c0,69.036942 55.964493,125.000015 124.999992,125.000015c69.036987,0 125.000015,-55.963058 125.000015,-125.000015c0,-69.0354 -55.963028,-124.999987 -125.000015,-124.999987zm-10.690659,56.195887l20.813675,0l0,22.139084l-20.813675,0l0,-22.139084zm34.445557,134.358513l-22.893692,0c-8.894318,0 -12.687027,-3.784409 -12.687027,-12.867462l0,-59.041946c0,-2.837967 -1.512466,-4.163391 -4.161774,-4.163391l-7.568817,0l0,-20.442917l22.895294,0c8.900925,0 12.67717,3.973053 12.67717,12.865799l0,59.232193c0,2.657593 1.512482,4.163467 4.161774,4.163467l7.568909,0l0,20.254242l0.008163,0z" opacity="0.5" fill-opacity="null" stroke-opacity="null" stroke-width="0" stroke="#000" fill="#BBBBBB"/>
  <path id="svg_3" d="m150.957321,24.95233c-69.0355,0 -124.999992,55.964579 -124.999992,124.999987c0,69.036942 55.964493,125.000015 124.999992,125.000015c69.036987,0 125.000015,-55.963058 125.000015,-125.000015c0,-69.0354 -55.963028,-124.999987 -125.000015,-124.999987zm-10.690659,56.195887l20.813675,0l0,22.139084l-20.813675,0l0,-22.139084zm34.445557,134.358513l-22.893692,0c-8.894318,0 -12.687027,-3.784409 -12.687027,-12.867462l0,-59.041946c0,-2.837967 -1.512466,-4.163391 -4.161774,-4.163391l-7.568817,0l0,-20.442917l22.895294,0c8.900925,0 12.67717,3.973053 12.67717,12.865799l0,59.232193c0,2.657593 1.512482,4.163467 4.161774,4.163467l7.568909,0l0,20.254242l0.008163,0z" opacity="0.5" fill-opacity="null" stroke-opacity="null" stroke-width="0" stroke="#000" fill="#BBBBBB"/>
  <path id="svg_4" d="m150.957321,24.95233c-69.0355,0 -124.999992,55.964579 -124.999992,124.999987c0,69.036942 55.964493,125.000015 124.999992,125.000015c69.036987,0 125.000015,-55.963058 125.000015,-125.000015c0,-69.0354 -55.963028,-124.999987 -125.000015,-124.999987zm-10.690659,56.195887l20.813675,0l0,22.139084l-20.813675,0l0,-22.139084zm34.445557,134.358513l-22.893692,0c-8.894318,0 -12.687027,-3.784409 -12.687027,-12.867462l0,-59.041946c0,-2.837967 -1.512466,-4.163391 -4.161774,-4.163391l-7.568817,0l0,-20.442917l22.895294,0c8.900925,0 12.67717,3.973053 12.67717,12.865799l0,59.232193c0,2.657593 1.512482,4.163467 4.161774,4.163467l7.568909,0l0,20.254242l0.008163,0z" opacity="0.5" fill-opacity="null" stroke-opacity="null" stroke-width="0" stroke="#000" fill="#BBBBBB"/>
  <path id="svg_5" d="m150.957321,24.95233c-69.0355,0 -124.999992,55.964579 -124.999992,124.999987c0,69.036942 55.964493,125.000015 124.999992,125.000015c69.036987,0 125.000015,-55.963058 125.000015,-125.000015c0,-69.0354 -55.963028,-124.999987 -125.000015,-124.999987zm-10.690659,56.195887l20.813675,0l0,22.139084l-20.813675,0l0,-22.139084zm34.445557,134.358513l-22.893692,0c-8.894318,0 -12.687027,-3.784409 -12.687027,-12.867462l0,-59.041946c0,-2.837967 -1.512466,-4.163391 -4.161774,-4.163391l-7.568817,0l0,-20.442917l22.895294,0c8.900925,0 12.67717,3.973053 12.67717,12.865799l0,59.232193c0,2.657593 1.512482,4.163467 4.161774,4.163467l7.568909,0l0,20.254242l0.008163,0z" opacity="0.5" fill-opacity="null" stroke-opacity="null" stroke-width="0" stroke="#000" fill="#BBBBBB"/>
  <path id="svg_6" d="m150.957321,24.95233c-69.0355,0 -124.999992,55.964579 -124.999992,124.999987c0,69.036942 55.964493,125.000015 124.999992,125.000015c69.036987,0 125.000015,-55.963058 125.000015,-125.000015c0,-69.0354 -55.963028,-124.999987 -125.000015,-124.999987zm-10.690659,56.195887l20.813675,0l0,22.139084l-20.813675,0l0,-22.139084zm34.445557,134.358513l-22.893692,0c-8.894318,0 -12.687027,-3.784409 -12.687027,-12.867462l0,-59.041946c0,-2.837967 -1.512466,-4.163391 -4.161774,-4.163391l-7.568817,0l0,-20.442917l22.895294,0c8.900925,0 12.67717,3.973053 12.67717,12.865799l0,59.232193c0,2.657593 1.512482,4.163467 4.161774,4.163467l7.568909,0l0,20.254242l0.008163,0z" opacity="0.5" fill-opacity="null" stroke-opacity="null" stroke-width="0" stroke="#000" fill="#BBBBBB"/>
  <path id="svg_7" d="m150.957321,24.95233c-69.0355,0 -124.999992,55.964579 -124.999992,124.999987c0,69.036942 55.964493,125.000015 124.999992,125.000015c69.036987,0 125.000015,-55.963058 125.000015,-125.000015c0,-69.0354 -55.963028,-124.999987 -125.000015,-124.999987zm-10.690659,56.195887l20.813675,0l0,22.139084l-20.813675,0l0,-22.139084zm34.445557,134.358513l-22.893692,0c-8.894318,0 -12.687027,-3.784409 -12.687027,-12.867462l0,-59.041946c0,-2.837967 -1.512466,-4.163391 -4.161774,-4.163391l-7.568817,0l0,-20.442917l22.895294,0c8.900925,0 12.67717,3.973053 12.67717,12.865799l0,59.232193c0,2.657593 1.512482,4.163467 4.161774,4.163467l7.568909,0l0,20.254242l0.008163,0z" opacity="0.5" fill-opacity="null" stroke-opacity="null" stroke-width="0" stroke="#000" fill="#BBBBBB"/>
  <path id="svg_8" d="m150.957321,24.95233c-69.0355,0 -124.999992,55.964579 -124.999992,124.999987c0,69.036942 55.964493,125.000015 124.999992,125.000015c69.036987,0 125.000015,-55.963058 125.000015,-125.000015c0,-69.0354 -55.963028,-124.999987 -125.000015,-124.999987zm-10.690659,56.195887l20.813675,0l0,22.139084l-20.813675,0l0,-22.139084zm34.445557,134.358513l-22.893692,0c-8.894318,0 -12.687027,-3.784409 -12.687027,-12.867462l0,-59.041946c0,-2.837967 -1.512466,-4.163391 -4.161774,-4.163391l-7.568817,0l0,-20.442917l22.895294,0c8.900925,0 12.67717,3.973053 12.67717,12.865799l0,59.232193c0,2.657593 1.512482,4.163467 4.161774,4.163467l7.568909,0l0,20.254242l0.008163,0z" opacity="0.5" fill-opacity="null" stroke-opacity="null" stroke-width="0" stroke="#000" fill="#BBBBBB"/>
  <path id="svg_9" d="m150.957321,24.95233c-69.0355,0 -124.999992,55.964579 -124.999992,124.999987c0,69.036942 55.964493,125.000015 124.999992,125.000015c69.036987,0 125.000015,-55.963058 125.000015,-125.000015c0,-69.0354 -55.963028,-124.999987 -125.000015,-124.999987zm-10.690659,56.195887l20.813675,0l0,22.139084l-20.813675,0l0,-22.139084zm34.445557,134.358513l-22.893692,0c-8.894318,0 -12.687027,-3.784409 -12.687027,-12.867462l0,-59.041946c0,-2.837967 -1.512466,-4.163391 -4.161774,-4.163391l-7.568817,0l0,-20.442917l22.895294,0c8.900925,0 12.67717,3.973053 12.67717,12.865799l0,59.232193c0,2.657593 1.512482,4.163467 4.161774,4.163467l7.568909,0l0,20.254242l0.008163,0z" opacity="0.5" fill-opacity="null" stroke-opacity="null" stroke-width="0" stroke="#000" fill="#BBBBBB"/>
  <path id="svg_10" d="m150.957321,24.95233c-69.0355,0 -124.999992,55.964579 -124.999992,124.999987c0,69.036942 55.964493,125.000015 124.999992,125.000015c69.036987,0 125.000015,-55.963058 125.000015,-125.000015c0,-69.0354 -55.963028,-124.999987 -125.000015,-124.999987zm-10.690659,56.195887l20.813675,0l0,22.139084l-20.813675,0l0,-22.139084zm34.445557,134.358513l-22.893692,0c-8.894318,0 -12.687027,-3.784409 -12.687027,-12.867462l0,-59.041946c0,-2.837967 -1.512466,-4.163391 -4.161774,-4.163391l-7.568817,0l0,-20.442917l22.895294,0c8.900925,0 12.67717,3.973053 12.67717,12.865799l0,59.232193c0,2.657593 1.512482,4.163467 4.161774,4.163467l7.568909,0l0,20.254242l0.008163,0z" opacity="0.5" fill-opacity="null" stroke-opacity="null" stroke-width="0" stroke="#000" fill="#BBBBBB"/>
  <path id="svg_11" d="m150.957321,24.95233c-69.0355,0 -124.999992,55.964579 -124.999992,124.999987c0,69.036942 55.964493,125.000015 124.999992,125.000015c69.036987,0 125.000015,-55.963058 125.000015,-125.000015c0,-69.0354 -55.963028,-124.999987 -125.000015,-124.999987zm-10.690659,56.195887l20.813675,0l0,22.139084l-20.813675,0l0,-22.139084zm34.445557,134.358513l-22.893692,0c-8.894318,0 -12.687027,-3.784409 -12.687027,-12.867462l0,-59.041946c0,-2.837967 -1.512466,-4.163391 -4.161774,-4.163391l-7.568817,0l0,-20.442917l22.895294,0c8.900925,0 12.67717,3.973053 12.67717,12.865799l0,59.232193c0,2.657593 1.512482,4.163467 4.161774,4.163467l7.568909,0l0,20.254242l0.008163,0z" opacity="0.5" fill-opacity="null" stroke-opacity="null" stroke-width="0" stroke="#000" fill="#BBBBBB"/>
  <path id="svg_12" d="m150.957321,24.95233c-69.0355,0 -124.999992,55.964579 -124.999992,124.999987c0,69.036942 55.964493,125.000015 124.999992,125.000015c69.036987,0 125.000015,-55.963058 125.000015,-125.000015c0,-69.0354 -55.963028,-124.999987 -125.000015,-124.999987zm-10.690659,56.195887l20.813675,0l0,22.139084l-20.813675,0l0,-22.139084zm34.445557,134.358513l-22.893692,0c-8.894318,0 -12.687027,-3.784409 -12.687027,-12.867462l0,-59.041946c0,-2.837967 -1.512466,-4.163391 -4.161774,-4.163391l-7.568817,0l0,-20.442917l22.895294,0c8.900925,0 12.67717,3.973053 12.67717,12.865799l0,59.232193c0,2.657593 1.512482,4.163467 4.161774,4.163467l7.568909,0l0,20.254242l0.008163,0z" opacity="0.5" fill-opacity="null" stroke-opacity="null" stroke-width="0" stroke="#000" fill="#BBBBBB"/>
  <path id="svg_13" d="m150.957321,24.95233c-69.0355,0 -124.999992,55.964579 -124.999992,124.999987c0,69.036942 55.964493,125.000015 124.999992,125.000015c69.036987,0 125.000015,-55.963058 125.000015,-125.000015c0,-69.0354 -55.963028,-124.999987 -125.000015,-124.999987zm-10.690659,56.195887l20.813675,0l0,22.139084l-20.813675,0l0,-22.139084zm34.445557,134.358513l-22.893692,0c-8.894318,0 -12.687027,-3.784409 -12.687027,-12.867462l0,-59.041946c0,-2.837967 -1.512466,-4.163391 -4.161774,-4.163391l-7.568817,0l0,-20.442917l22.895294,0c8.900925,0 12.67717,3.973053 12.67717,12.865799l0,59.232193c0,2.657593 1.512482,4.163467 4.161774,4.163467l7.568909,0l0,20.254242l0.008163,0z" opacity="0.5" fill-opacity="null" stroke-opacity="null" stroke-width="0" stroke="#000" fill="#BBBBBB"/>
  <path id="svg_14" d="m150.957321,24.95233c-69.0355,0 -124.999992,55.964579 -124.999992,124.999987c0,69.036942 55.964493,125.000015 124.999992,125.000015c69.036987,0 125.000015,-55.963058 125.000015,-125.000015c0,-69.0354 -55.963028,-124.999987 -125.000015,-124.999987zm-10.690659,56.195887l20.813675,0l0,22.139084l-20.813675,0l0,-22.139084zm34.445557,134.358513l-22.893692,0c-8.894318,0 -12.687027,-3.784409 -12.687027,-12.867462l0,-59.041946c0,-2.837967 -1.512466,-4.163391 -4.161774,-4.163391l-7.568817,0l0,-20.442917l22.895294,0c8.900925,0 12.67717,3.973053 12.67717,12.865799l0,59.232193c0,2.657593 1.512482,4.163467 4.161774,4.163467l7.568909,0l0,20.254242l0.008163,0z" opacity="0.5" fill-opacity="null" stroke-opacity="null" stroke-width="0" stroke="#000" fill="#BBBBBB"/>
  <path id="svg_15" d="m150.957321,24.95233c-69.0355,0 -124.999992,55.964579 -124.999992,124.999987c0,69.036942 55.964493,125.000015 124.999992,125.000015c69.036987,0 125.000015,-55.963058 125.000015,-125.000015c0,-69.0354 -55.963028,-124.999987 -125.000015,-124.999987zm-10.690659,56.195887l20.813675,0l0,22.139084l-20.813675,0l0,-22.139084zm34.445557,134.358513l-22.893692,0c-8.894318,0 -12.687027,-3.784409 -12.687027,-12.867462l0,-59.041946c0,-2.837967 -1.512466,-4.163391 -4.161774,-4.163391l-7.568817,0l0,-20.442917l22.895294,0c8.900925,0 12.67717,3.973053 12.67717,12.865799l0,59.232193c0,2.657593 1.512482,4.163467 4.161774,4.163467l7.568909,0l0,20.254242l0.008163,0z" opacity="0.5" fill-opacity="null" stroke-opacity="null" stroke-width="0" stroke="#000" fill="#BBBBBB"/>
  <path id="svg_17" d="m150.957321,24.95233c-69.0355,0 -124.999992,55.964579 -124.999992,124.999987c0,69.036942 55.964493,125.000015 124.999992,125.000015c69.036987,0 125.000015,-55.963058 125.000015,-125.000015c0,-69.0354 -55.963028,-124.999987 -125.000015,-124.999987zm-10.690659,56.195887l20.813675,0l0,22.139084l-20.813675,0l0,-22.139084zm34.445557,134.358513l-22.893692,0c-8.894318,0 -12.687027,-3.784409 -12.687027,-12.867462l0,-59.041946c0,-2.837967 -1.512466,-4.163391 -4.161774,-4.163391l-7.568817,0l0,-20.442917l22.895294,0c8.900925,0 12.67717,3.973053 12.67717,12.865799l0,59.232193c0,2.657593 1.512482,4.163467 4.161774,4.163467l7.568909,0l0,20.254242l0.008163,0z" opacity="0.5" fill-opacity="null" stroke-opacity="null" stroke-width="0" stroke="#000" fill="#BBBBBB"/>
 </g>
</svg>