<svg width="580" height="400" xmlns="http://www.w3.org/2000/svg">
 <!-- Created with SVG Editor - http://github.com/mzalive/SVG Editor/ -->
 <g>
  <title>background</title>
  <rect fill="#fff" id="canvas_background" height="402" width="582" y="-1" x="-1"/>
  <g display="none" overflow="visible" y="0" x="0" height="100%" width="100%" id="canvasGrid">
   <rect fill="url(#gridpattern)" stroke-width="0" y="0" x="0" height="100%" width="100%"/>
  </g>
 </g>
 <g>
  <title>Layer 1</title>
  <path id="svg_1" d="m237.221283,-0.470225c-130.602211,0 -236.524885,89.085284 -236.524885,198.999964c0,109.89418 105.922674,199.000076 236.524885,199.000076c130.603088,0 236.475037,-89.105896 236.475037,-199.000076c0,-109.91468 -105.871948,-198.999964 -236.475037,-198.999964zm0,356.90507c-103.48851,0 -187.709797,-70.846375 -187.709797,-157.905106c0,-87.079063 84.221287,-157.92535 187.709797,-157.92535c103.489166,0 187.660522,70.825092 187.660522,157.92535c0,87.100601 -84.171356,157.905106 -187.660522,157.905106zm0,-306.805046c-9.037567,0 -16.288071,6.121536 -16.288071,13.684643l0,126.252651l-98.373596,36.206451c-8.243362,3.029526 -11.967796,11.114868 -8.343254,18.050934c2.632149,5.118561 8.591446,8.18988 14.848427,8.18988c2.185333,0 4.419296,-0.354919 6.554901,-1.148987l107.809265,-39.69545c0.09906,-0.020844 0.148712,-0.041855 0.198318,-0.083664l0.099213,-0.020905c0.248688,-0.08345 0.3479,-0.271698 0.596436,-0.334213c1.688034,-0.710312 3.277176,-1.546249 4.518753,-2.674332c0.546417,-0.459579 0.893555,-1.065445 1.290909,-1.608643c0.794479,-0.877502 1.63884,-1.734146 2.135132,-2.778732c0.397736,-0.835602 0.397736,-1.713104 0.596252,-2.590729c0.19841,-0.898026 0.645462,-1.671295 0.645462,-2.569672l0,-135.215649c0,-7.542049 -7.299728,-13.663586 -16.288147,-13.663586z" stroke-width="0" stroke="#000" fill="#CC7C65"/>
 </g>
</svg>