<svg width="580" height="400" xmlns="http://www.w3.org/2000/svg">
 <!-- Created with SVG Editor - http://github.com/mzalive/SVG Editor/ -->

 <g>
  <title>background</title>
  <rect fill="#fff" id="canvas_background" height="402" width="582" y="-1" x="-1"/>
  <g display="none" overflow="visible" y="0" x="0" height="100%" width="100%" id="canvasGrid">
   <rect fill="url(#gridpattern)" stroke-width="0" y="0" x="0" height="100%" width="100%"/>
  </g>
 </g>
 <g>
  <title>Layer 1</title>
  <path stroke="#000" id="svg_1" d="m0.634766,93.347866l35.141123,0l10.858877,-34.759003l10.858884,34.759003l35.141117,0l-28.429714,21.481999l10.859439,34.759003l-28.429726,-21.482584l-28.42972,21.482584l10.859442,-34.759003l-28.429723,-21.481999z" stroke-width="0" fill="#01bb1a"/>
  <path stroke="#000" id="svg_2" d="m93.149918,93.347867l35.141123,0l10.858877,-34.759003l10.858884,34.759003l35.141116,0l-28.429713,21.481999l10.859439,34.759002l-28.429726,-21.482584l-28.42972,21.482584l10.859443,-34.759002l-28.429723,-21.481999z" stroke-width="0" fill="#01bb1a"/>
  <path stroke="#000" id="svg_3" d="m186.507494,93.559988l35.141123,0l10.858877,-34.759003l10.858884,34.759003l35.141116,0l-28.429713,21.481999l10.859439,34.759002l-28.429726,-21.482584l-28.42972,21.482584l10.859443,-34.759002l-28.429723,-21.481999z" stroke-width="0" fill="#01bb1a"/>
  <path stroke="#000" id="svg_4" d="m282.27113,93.347867l35.141123,0l10.858877,-34.759003l10.858884,34.759003l35.141116,0l-28.429713,21.481999l10.859439,34.759002l-28.429726,-21.482584l-28.42972,21.482584l10.859443,-34.759002l-28.429723,-21.481999z" stroke-width="0" fill="#01bb1a"/>
  <path stroke="#000" id="svg_5" d="m374.386282,94.159988l35.141123,0l10.858877,-34.759003l10.858884,34.359003l35.141116,0.4l-28.429713,21.481999l10.859439,34.759002l-28.429726,-21.482584l-28.42972,21.482584l10.859443,-34.759002l-28.429723,-21.481999z" stroke-width="0" fill="#01bb1a"/>
  <ellipse stroke="#000" id="svg_8" cy="109.599884" cx="468.399527" stroke-opacity="null" stroke-width="1.5" fill="#ffffff"/>
  <path stroke="#000" id="svg_9" d="m467.647368,93.763398l36.113396,0l11.159317,-35.881755l11.159324,35.881755l36.11339,0l-29.216298,22.17589l11.159895,35.881755l-29.216311,-22.176494l-29.216304,22.176494l11.159898,-35.881755l-29.216307,-22.17589z" stroke-opacity="null" stroke-width="0" fill="#f2f4f4"/>
 </g>
</svg>